<?xml version="1.0" encoding="UTF-8" standalone="yes"?>
<svg version="1.2" baseProfile="tiny-ps" viewBox="0 0 276 276" xmlns="http://www.w3.org/2000/svg">
  <title>bimi-svg-tiny-12-ps</title>
  <g>
    <g fill="#f7f7f7" transform="matrix(.1 0 0 -.1 0 276)">
      <path d="M0 1380V0h2760v2760H0V1380z"/>
    </g>
    <g fill="#e2ccce" transform="matrix(.1 0 0 -.1 0 276)">
      <path d="M950 2640v-20h29l6-20 6-20 28-14 27-14 14-29c8-15 25-39 38-53s28-33 33-43l10-17-23-11-24-10-14-32c-8-18-15-39-15-47-1-8-2-23-3-32l-2-18h-31l6-20 6-20h-10c-5 0-13 5-16 10-3 6-13 10-22 10h-15l11-14 11-13-15-13-16-13 2-21c3-50-9-60-41-31-10 9-26 17-38 20l-20 3 8-28 8-29-33-7-34-6-30 18c-17 10-31 22-31 26 0 5-13 22-29 39l-29 30-34-3-33-3-3-16-3-15 34-36c18-20 42-37 52-39s17-8 16-13c-2-5 4-13 13-18l16-9v-37l20-13 20-14-6-22-6-23h-29l5 8c2 4 1 14-4 21l-8 14-11-7c-6-4-11-16-11-26v-19l-17-5c-10-3-35-8-56-10l-38-5-50 15c-56 17-63 15-53-10l7-17 13 5 14 5v-9c0-5 12-10 27-12l27-3 6-25 6-25 12 1c7 1 17 2 23 3l10 1-6 19-5 18 37 6 37 6 13-10c7-6 10-15 7-20-2-5 2-19 11-33l16-24-10-7c-6-3-15-3-21 0l-10 6-21-12-21-11 6 11 7 11h-22l15 16c17 16 20 27 10 37s-34-4-34-20c0-19-40-63-58-63-7 0-15-7-18-15l-6-15-16 9c-10 4-35 9-56 9l-39 1-17 16c-9 8-22 15-29 15h-12l3-16 3-16 40-15c22-8 57-17 77-20l37-5 6-29 6-29-6-19-6-20-82 3-82 3-35 21-35 22h-53l-13-16-13-16-38 5-38 5-6-9-5-9h13c7 0 34-11 59-23l46-23 44-3c24-1 49-7 55-12 14-12 59-13 97-4l27 7v-25c0-14 2-31 4-39l5-13-31-24c-16-13-38-24-47-23-9 0-40-4-68-9l-53-10v-31l18 7c9 4 30 8 45 10l29 2 7 12 8 12 16-7 17-6 25 16c13 9 30 16 37 16h13l-33-21-32-21v-60l-15 6-15 5v-19h-38l-4-23-4-23 27 4 27 4 6 17c4 9 12 25 19 36l12 20 29 3 28 3-6-38-7-38-17-12-16-13h12c18 0 15-21-5-37l-18-15 17 5 16 6 7-37c8-43 35-99 68-138 13-16 26-37 30-46l6-18h16c8 0 15-4 15-10v-10h49l11-20 11-21 11 7c7 4 34 8 61 9l50 2 26-13c14-8 37-14 50-14h24l-6-54-5-54 15-6c8-3 19-4 24 0l9 5v109h10c6 0 10-5 10-11v-10l18 2c9 1 22 1 29 0l11-1 11-31 11-32V733l-15-49c-8-27-15-63-15-80v-31l18-16 19-17h43l10 25 10 26-7 102-6 103 7 58 8 57 16-3 17-3 5-55 5-55h40l3 43c4 49 14 53 31 15l13-28-4-263-3-263 15-9 15-10 20 6c28 9 29 11 28 52 0 20-1 142-2 270l-1 234 15 21 15 21v-16c0-18 18-34 27-24 3 3 0 13-8 22l-14 17 15-5 15-5 3-37c2-21-1-56-5-79l-9-42 7-34c4-18 13-37 20-42l13-7 28 21 28 22-5 55c-3 30-7 78-10 107l-5 51 20 24 19 23 1-57v-58h40v150h8c4 0 13-5 20-12l12-12V636l-11-88-12-88 17-25c20-30 30-31 57-4l21 21-6 56c-4 31-7 127-7 212v155l15 35 15 35 1-17c0-9 5-20 11-24l11-7 9 14 8 13 7-7 8-7-2-313c-1-171-5-352-8-400l-7-88 18-13 19-13 25 6 25 7 1 380v379l9 30 8 30 31 28 32 28-13 8-14 8 14 5c7 2 33 6 57 7l44 2-7-16c-3-9-3-34 0-55l6-38 14 5 14 5v93l38 18c20 10 58 33 84 52l47 35 31 52c17 29 33 66 37 81l6 29 13 5 12 4 79-44c43-25 80-43 83-41 8 8-53 52-117 86l-63 32v45l30-10c16-6 37-9 47-6l18 4-30 8c-17 3-40 14-52 23l-20 17-7 29-7 29 13-5c7-3 23-8 36-12l22-7v10c0 6-10 13-22 15-13 3-32 7-43 9l-20 5 23 1 22 1v18l-25-2-24-3-23 33c-13 18-33 39-45 45l-23 12-1 19c-1 10-2 24-3 31l-1 12h-38l-4 12-4 11 40-5 41-6v25l-16-6-15-6 6 10 6 10h-39l-6 15-5 15 35 26 35 27 23-13 24-12 20 11c12 6 41 13 66 16 25 2 62 12 83 22 21 9 49 19 62 22 13 4 26 11 28 18l4 12-51-1-51-1-11 11-12 12h-76l-20-17-20-17-57-13c-32-6-63-12-69-12l-11-1 5 30 4 30h-24l12 15 12 15h28c15 0 42 5 61 12l34 12-28 7-28 7-45-15-46-15-15 15-15 15 6 11c4 6 14 11 22 11s14 4 14 9 20 19 44 31l44 21 6 15 6 15 45 20 45 20v22c0 12-4 27-8 33l-7 11-38-2-39-3-24-23c-13-12-26-30-29-39-6-18-87-81-110-84-8-1-18-5-21-9-11-11-19-9-41 13l-22 20 14 28c8 15 26 39 40 52 51 48 23 40-32-9l-57-51h-22c-12 0-35-3-52-6l-30-6-4 23-3 24 27 44c16 25 28 53 28 63v18h-46l-20-19c-10-10-27-28-36-40-19-22-38-28-38-11v9l-15-5-15-6v12c0 7 10 26 23 43 12 18 30 49 40 71l18 39-10 10-9 9-11-6c-6-4-11-13-11-21 0-7-11-22-25-32l-25-18-18-49-17-49-13-5-13-4 7 29 7 28-8-7-7-7-15 15-15 15 6 15 6 15-15 5c-8 4-15 12-15 20v14h-14c-7 0-19-7-26-15s-17-15-22-15h-10l7 27c4 16 4 25 0 22l-6-7-25 23-24 22v93h-30v-27c0-16-4-33-8-40l-7-11-28 5-27 5v29l-10-6-10-6v18c0 11 4 23 9 29 5 5 14 26 21 48l12 38-13 14-14 13-10-7c-18-13-45-61-45-81v-20l-32 10c-18 5-45 9-60 9h-28v12c0 6-11 25-23 42-26 34-49 91-40 100 3 3-5 14-18 25l-24 20-25 1c-14 0-38 7-54 15-38 20-46 19-46-5zm521-526 65-31 51-52 51-52 28-64 28-65h11c6 0 28 9 50 20 51 26 75 25 134-4l48-25 32-49 31-49v-41c0-47-11-82-37-111-18-22-43-28-43-11 0 5-19 24-42 41l-43 31-45-5-44-5-28-31-28-31-24 15-24 16-26-7-26-6 6 16 6 16h-11c-6 0-11 6-11 14v14l-49 44-49 44-40 12c-49 15-86 15-135 1l-38-10-40-36c-22-20-48-50-56-67l-16-31-6-60-6-60-57 3-57 2-32-28-32-28-4-51-5-50 11-7c19-12 12-25-16-28l-28-3 2-12 3-13h-81l-24-16-25-16v-90l-16 6c-9 3-20 6-25 6s-9 7-9 15v15h-16c-17 0-49 28-49 44l-1 11-12-2-12-3v41l-9-5-9-6-7 18c-3 9-8 49-11 87l-4 70 9 30 8 30 13-3 13-3-13 15-12 16h11c6 0 11 6 11 14 0 13 63 86 75 86 4 0 22 7 41 16l34 16 59-4 59-4-5 98-6 98 31 62 31 63 57 58c32 31 61 57 66 57 4 0 27 9 51 19 67 30 67 30 162 28l90-2 66-31zm-139 482c1-10 8-17 13-17 15 1 12 24-3 29l-14 4 4-16zm-408-51c1-8 5-18 9-21l7-7v16c0 9-4 18-9 21l-9 6 2-15zm73-1c-3-3-3-13 0-21l6-15-13-8-13-8 6-16 6-16h33l-5 20-5 20h28v50h-18c-10 0-21-3-25-6zm253-78v-16h32l-4 12c-2 6-10 14-16 16l-12 4v-16zm407-3c-4-3-7-12-7-20v-13h40v40h-13c-8 0-17-3-20-7zm-692-33c3-5 10-10 16-10 5 0 9 5 9 10 0 6-7 10-16 10h-15l6-10zm535-51v-21l13 4c6 3 13 12 15 21l3 17h-31v-21zm120-15v-15l10 6 10 6-5 10c-9 14-15 11-15-7zm-660-7c0-7 10-18 21-26l22-13 8 13 8 13-11 13c-6 7-19 13-29 13h-19v-13zm840-22c0-8 5-15 10-15 6 0 10 7 10 15s-4 15-10 15c-5 0-10-7-10-15zm-876-20-6-15 12-15 11-14 15 6 14 5v48h-41l-5-15zm606-16v-21l13 4c6 3 13 12 15 21l3 17h-31v-21zm114-3-6-17 6-6 6-7 12 12 12 12-12 12-11 11-7-17zm-652-18c2-6 10-14 16-16l12-4-6 16c-3 9-11 16-16 16h-10l4-12zm-146-55c-8-9 14-33 30-33 8 0 14 4 14 10 0 12-35 31-44 23zm1094-8v-15h30v30h-30v-15zM616 2062c-11-10-6-29 7-29 6 0 25-4 41-8l29-8-24 24c-24 24-43 32-53 21zm1530-359c-11-11-6-23 9-23 8 0 15 4 15 9 0 13-16 22-24 14zm79-42-5-10 10-6 10-6 10 6 10 6-5 10c-4 5-10 9-15 9s-11-4-15-9zm-45-39c0-15 24-32 46-32 13 0 26-4 29-10 8-13 35-13 35 1 0 6-9 13-20 16l-20 5v28h-70v-8zm-250-656v-16h32l-4 12c-2 6-10 14-16 16l-12 4v-16zM670 940l-14-9 16-6 17-7 11 7 10 6-5 10c-8 11-16 11-35-1zm227-30-5-19 14-12 14-11v8c0 5 3 19 6 32l6 22h-30l-5-20z"/>
    </g>
    <g fill="#b38485" transform="matrix(.1 0 0 -.1 0 276)">
      <path d="M960 2643c0-4 26-32 58-63 31-32 75-81 96-110l40-53-27-19c-15-11-27-24-27-30s-7-16-15-22l-15-11-1-53-2-53-29-6-29-6-14-21-15-20v-57l-15-6-16-5-18 16c-10 9-23 16-30 16h-13l6-25 6-25h-19c-11 0-22-4-25-9l-6-8-27 5c-33 5-69 36-89 75l-15 27h-70l3-17 3-17 35-23c47-30 80-64 80-82 0-8 9-25 21-37l20-21-7-27-6-26h-19c-10 0-19-4-19-9v-8l-65-6-66-5-46 14c-55 17-63 17-63 4v-10l28-1c15 0 42-6 61-13l35-12 42 9 43 10 16-13c8-7 15-20 15-30v-18l15-6 15-5-11-24-11-25-46-5-46-5-23-28-22-28-48 17c-46 16-92 23-81 12 3-4 28-11 54-18l49-12-3-40c-2-22-8-45-13-51l-9-11-85 3-85 3-27 20-26 21h-31l-31-1-19-14-19-15-41 5-41 4 20-5c11-4 45-17 75-29l55-23 28 5 28 5 18-16 18-17 27 11c15 5 40 10 55 10h28l16-18c10-10 17-26 17-35v-17l-32-21-33-21 39 7 39 6-8-23c-4-13-8-39-10-58-3-49-15-100-24-100-15 0 4-96 32-162l16-38 50-50 50-50h15c8 0 22-7 31-17l17-16 65 2 64 2 13-10 13-11 23 25 23 25 13-18 13-17 1-68v-69l13 4 12 5 3 52 3 53 22-6c12-3 30-6 39-6h16l12-36 12-36-6-87c-4-47-9-112-12-144l-6-58 12-14c15-19 44-19 58-2 14 16 14 38 6 182l-6 110 9 35 9 35h39l5-55 5-55 16-3 16-3 7 23c3 13 6 33 6 46v22h9c5 0 15-10 24-23l15-23 1-197 2-197-11-60-11-60 11-20 11-20h19c10 0 22 6 27 13l8 12-4 270-3 270 25 24 26 24 14-6 15-6 4-43 5-43-11-62-10-61 13-16c8-9 21-16 30-16h17l17 30 18 30-10 18-10 19-2 71-2 71 19 28 19 28 5-59 5-59 13-5c6-2 12 0 13 5 0 4 1 38 2 75 2 37 6 70 9 74l7 6 17-6 16-6-3-268-4-267 27-3 27-3 11 22 12 21-12 43-12 42 4 174 3 174 23 33c13 17 28 32 33 32 6 0 17-16 25-36l15-36-5-347c-3-190-6-368-8-396l-3-50 31-3 31-3 13 16 13 15-10 53-10 52 3 290c2 160 6 312 9 338l6 48 30 50 31 49h31c18 0 43-3 55-7l24-6-7-43-6-44h30l3 52 3 52 30 8c42 11 124 75 157 123l28 40 13 52 13 52 87-49c47-28 90-50 93-50 12 0-73 58-125 86l-51 26v50l18-7c9-3 31-9 47-11l30-5-45 17c-55 20-56 21-65 63l-7 33 33-7 34-6-15 10c-8 6-24 11-36 11h-21l-31 44-32 44-38 23c-20 13-40 27-43 32s-9 8-13 8c-3-1-15-1-26-1h-19l33 33 34 34-10 16-9 17 21 22 21 23 47 1c26 1 61 5 77 10 17 4 38 7 47 5 9-1 32 6 50 15 18 10 53 23 78 30l45 12-50 1-50 2-19 14c-11 8-30 15-42 15h-21l-28-22-28-22-41-7c-22-4-55-10-73-14l-32-7-7 26c-3 14-11 26-16 26h-10l6 25 6 25-12 20-13 20 45 40 45 39 17 1h17l18 23c10 12 32 29 50 36s38 19 44 27l11 14-12 15-12 15h-66l-26-31c-14-17-26-34-26-39 0-10-91-72-134-92l-29-13-5 13c-2 6-10 12-18 12s-17 6-20 14l-6 14 18 27c24 36 12 41-25 9l-31-26-16 6-16 6-11-7c-7-4-20-9-29-10l-18-3v18c0 10-5 23-11 29l-10 10 24 29c13 16 29 39 36 52l12 22-6 10c-12 19-31 10-73-33l-43-43-29 4-30 4v13c0 7 8 23 19 36 23 30 61 108 61 126 0 7-4 13-10 13-5 0-10-4-10-10 0-5-13-24-29-42-15-18-31-44-35-58-10-36-39-90-48-90-5 0-8 12-8 28v27l-30 28-30 29v19c0 23-6 24-27 4-20-21-35-15-40 16l-3 24-20 15-19 15-3 50-3 50-10-2-10-3-3-41-3-41-15 6c-9 3-26 6-39 6h-24l-12 21-11 21 22 58 22 59-7 10c-11 19-24 12-41-20l-16-32 13-7 12-8-8-18-8-19-5 19-4 19-8-14-9-13-33 12-33 11-20-4-20-5-31 52c-17 29-34 64-37 78s-12 33-19 43l-13 17-62 19c-35 11-63 17-63 14zm410-493c29-5 79-22 111-36l58-26 51-54 51-54 24-52c14-29 25-59 25-65 0-17 0-17 51 7l44 20h32c67 0 140-51 169-119l14-33v-93l-18-35c-11-19-27-39-36-44l-17-11-21 29-21 28-32 14-31 13-42-6-42-6-26-30-25-29-19 17-19 17-31-4-31-5-6 28c-3 15-18 43-34 62l-29 35-46 22-45 22-47 1h-47l-47-21-48-21-26-28c-15-15-33-44-42-63l-15-35 2-43 1-42-12-19-12-20-17 9c-22 12-68 15-94 7l-21-7-17-29-17-29v-78l13-13 12-12-19-11c-10-5-25-19-34-29l-16-19-36 6-35 6-22-22-23-21v-52l17-19 16-18h-10c-6 0-30 7-54 15l-44 16-33 32c-19 18-45 53-58 79l-24 47v156l24 50c27 59 60 96 107 121l34 19 70-1 70-1v222l19 39c11 21 44 65 74 98l55 59 54 26 55 25 52 8c74 11 78 11 136 0zm-33-1582-3-93v180c0 99 2 141 3 93 2-48 2-129 0-180zm460-200c-1-73-3-16-3 127s2 203 3 133c2-70 2-187 0-260zm-795 2160c5-15 28-18 29-3 0 6-7 12-17 13l-16 4 4-14zm253-68c3-5 8-10 11-10 2 0 4 5 4 10 0 6-5 10-11 10h-10l6-10zm408-5c-3-9-3-18 0-21 9-9 27 6 27 22 0 19-19 18-27-1zm-152-71 1-19 5 13c3 7 2 16-1 19-3 4-6-2-5-13zm-541-23c0-13 29-35 37-28 7 8-15 37-28 37-5 0-9-4-9-9zm837-18c-4-3-7-11-7-17v-10l12 12c6 6 9 14 7 17-3 3-9 2-12-2zm-875-40c2-9 9-18 16-21l12-4v42h-31l3-17zm598-3c0-5 5-10 10-10 6 0 10 5 10 10 0 6-4 10-10 10-5 0-10-4-10-10zm-665-100c3-5 8-10 11-10 2 0 4 5 4 10 0 6-5 10-11 10h-10l6-10zm1135-105-12-15h10c5 0 15 7 22 15l12 15h-10c-5 0-15-7-22-15zm160-195-25-8 20-1c11 0 27 4 35 9 18 11 5 11-30 0zm-52-17c7-3 16-2 19 1 4 3-2 6-13 5l-19-1 13-5zM425 1780l-6-10 16-6c22-9 29 1 11 15l-14 12-7-11zm177-19c4-13 18-16 19-4 0 4-5 9-11 12l-12 4 4-12zm1588-140c0-10 24-21 43-21l12 1-19 14c-22 17-36 19-36 6zM375 1433c-16-3-34-9-40-15l-10-10 35 7c19 4 44 11 55 16l20 8-15-1c-8-1-28-3-45-5zm133-4c-19-10-24-29-9-29 5 0 19 9 32 20l24 19h-15c-8 0-23-4-32-10zm-95-94-5-16 6-7 7-6 16 10c9 6 19 16 21 22l4 12h-43l-6-15zm265-402c7-3 16-2 19 1 4 3-2 6-13 5l-19-1 13-5zm1034-4c2-6 8-10 13-10s11 4 13 10l4 11h-34l4-11zm-812-19c0-5 5-10 10-10 6 0 10 5 10 10 0 6-4 10-10 10-5 0-10-4-10-10z"/>
    </g>
    <g fill="#c20d0b" transform="matrix(.1 0 0 -.1 0 276)">
      <path d="M1016 2592c47-44 134-160 134-180 0-5-11-15-25-22l-25-13v-14c0-7-7-16-15-19l-15-6v-116l-34-12-34-11-8-17c-4-9-8-28-8-42l-1-25-22-3-22-3-25 17c-28 18-32 14-16-17l11-19h-20c-11 0-23-5-26-10l-7-11-36 7c-40 8-44 11-86 67l-29 38-25-3-25-3-4-11-4-11 51-33c51-33 88-75 77-87-3-3 3-13 15-22l20-17-7-33-7-33-18-5c-10-3-21-11-24-19l-5-13 9-6c6-4 10-15 10-26v-19h20v-17c0-10-4-24-9-32l-9-15-29-2c-41-3-83-21-89-39-4-8-12-15-20-15h-14v-18c0-10-4-22-9-27-5-6-11-21-13-35l-3-25-92-2-92-1-17 19-17 19-32 6-32 6-35-19-36-19 41-18 40-17 24 6 23 5 25-16 26-17 39 12 40 12 29-15c16-9 31-23 35-32l6-17-15-23-15-24h40v-9c0-6-4-13-10-16l-10-6v-37c0-20-5-53-10-72-6-19-11-58-11-86v-51l15-37c30-72 85-131 156-169l35-19 73-1h72v-20l23 21c45 42 57 25 57-75v-65l13 4 12 5 3 52 3 53 15-6c9-3 26-6 38-6h23l11-25 12-26V706l-12-58-12-59 10-17 11-17 23-3 23-4 7 12 7 12-4 161-5 162 15 19 14 19 17-6 16-6v-45c0-24 3-51 6-60l6-15 14 6 14 5v77l9 6 10 5 20-22 21-22V391l-10-25-10-26 10-25 10-25h40l12 26 12 25-12 45-12 44v405l20 33 20 33 28-3 27-3 3-55 3-55-11-41-12-42 6-20c4-11 14-23 23-26l17-7 20 20 20 21-12 45c-7 25-12 68-12 96v51l17 29c10 16 21 29 25 29s8-23 10-52l3-51 13-5 12-4v137l9 14 9 14 16-6 16-6 1-23c4-107 0-412-6-445l-7-42 7-21 7-21 26 3 27 3-5 95c-3 52-5 156-5 230v135l23 38 24 37h28l16-25 16-25-3-405-4-405 18-6 18-6 18 16 18 16-8 48-8 47v320l-1 321 35 72 34 72h121l2-52 1-53 6 54 6 53 50 19 50 19 36 32c46 43 76 86 95 140l16 43-1 63-1 64-21 48-20 47-38 37-37 36-52 18c-66 24-68 26-37 46l25 16v15c0 8 4 15 9 15h9l-5 19-5 19 36 27 36 27 36-6 36-7 14 12 14 11 23-6 22-5 50 24 50 23-16 1c-9 1-22 8-29 16l-12 15h-60l-25-20-26-20h-29c-16 0-45-7-65-15l-36-15-13 11c-8 6-14 18-14 25 0 8-4 14-10 14h-10v30c0 17-6 39-12 50l-13 20 45 40c25 21 52 39 61 40 8 0 26 12 40 26 13 14 41 33 62 41l37 15v36l-32 6-31 6-22-14c-12-8-27-27-34-43l-12-28-66-43-67-42h-46v10c0 6-7 10-15 10h-15v24c0 14 5 28 10 31s10 11 10 17v12l-27-25-28-26-51-1-52-2-6 32-6 33 20 25c11 14 25 35 32 48l11 23-11 11-11 11-43-46-43-47-37 7-38 6v10c0 6 11 24 24 41 31 42 56 91 56 113v18l-20-32c-11-18-24-33-30-33h-10l-11-42c-5-24-19-53-29-66l-19-24-11 7c-5 3-10 16-10 28v22l-31 29-31 29 5 18 5 19-21-15c-12-8-27-15-34-15h-13v50l-25 16-25 16-2 52-1 51-6-45-6-45-15 4c-8 2-30 6-48 9l-32 4-7 27c-11 44-26 52-108 56l-50 2-4 18c-1 10-16 36-32 58s-29 48-29 57c0 10-8 27-17 39l-18 22-55 14-55 14 51-47zm390-446c29-7 76-26 104-42l53-29 45-55c39-48 65-94 85-152l6-16 38 19 38 20 56-3 55-4 38-29 37-28 26-51 25-50-5-49-6-48-21-34c-11-18-27-36-36-39l-15-6-39 41-39 42-53-5-52-5-29-33-28-32-17 15c-9 8-27 17-39 20l-23 5-6-9c-3-5-9-9-15-9h-9v60l-37 42-38 41-40 18-40 19h-96l-41-21c-23-12-56-36-74-54l-32-33-12-37-12-37 5-35 6-35-18-19-18-20-27 11c-15 5-38 10-51 10h-24l-26-27c-14-16-28-38-32-51l-6-23 16-40 15-39-26-12-27-13-3-22-3-21-31 15-31 16-26-16-26-16-3-37-3-38 17-13 18-13h-26c-69 0-144 55-185 135l-26 50-5 66-4 66 17 53 17 53 47 47 46 48 45 12 45 12 51-5 52-5-9 36c-5 21-9 60-9 88v50l17 50c29 84 87 155 175 211l43 27 50 12c28 7 75 13 105 13l55 1 51-14zm-69-1624c-1-59-3-10-3 108s2 167 3 108c2-60 2-156 0-216zm464-42-8-255-1 270-1 270 9-15 9-16-8-254zm-791 2050c0-5 5-10 11-10h10l-6 10c-3 6-8 10-11 10-2 0-4-4-4-10zm322-51c-5-12-6-35-4-51l5-31 12 30c7 16 16 39 19 51l7 22h-32l-7-21zm339-25 1-19 5 13c3 7 2 16-1 19-3 4-6-2-5-13zm-701-98c0-2 7-6 15-10l15-5v9c0 6-7 10-15 10s-15-2-15-4zm-38-48c2-6 10-14 16-16l12-4v32h-32l4-12zm-234-405c6-2 18-2 25 0l12 5h-50l13-5zm1735-90c9-2 23-2 30 0l12 5h-60l18-5zm-223-203c8-5 20-10 25-10h10l-15 10c-8 5-19 10-25 10h-10l15-10zM346 1421l-6-9 20 5c23 6 26 13 6 13-8 0-17-4-20-9zm159-1-6-10h10c5 0 13 5 16 10l6 10h-10c-5 0-13-4-16-10zm-90-90-6-10h15c8 0 18 5 21 10l6 10h-15c-8 0-18-4-21-10zm1891-51c6-10 104-62 104-55 0 3-25 18-55 34-30 17-52 26-49 21zm-585-355 1-19 5 13c3 7 2 16-1 19-3 4-6-2-5-13z"/>
    </g>
    <g fill="#931818" transform="matrix(.1 0 0 -.1 0 276)">
      <path d="M1001 2604c18-19 35-34 38-34 2 0-6 11-18 24l-22 24 13 4 13 5-28 5-29 6 33-34zm329-184c0-11 2-20 4-20s6 9 9 20l5 20h-9c-5 0-9-9-9-20zm-258-105v-30l5 18c2 9 2 23 0 30l-5 12v-30zm306 8c7-3 16-2 19 1 4 3-2 6-13 5l-19-1 13-5zm-446-15c2-6 11-13 19-16l14-4-14 10-13 10 13 5 14 5-18 1-19 1 4-12zm225-104-28-33-32-6-33-6-82-84c-45-45-82-87-82-93s-3-12-7-14c-11-4-53-84-53-100 0-7-7-31-15-53l-16-40-42-17c-23-9-50-18-59-22l-18-5v-16c0-8-4-15-10-15-5 0-21-12-35-26s-29-24-31-21c-6 6 16 49 31 59l10 8h-35v-18c0-10-4-22-9-27-5-6-11-21-13-35l-3-25-92-2-92-1-17 19-17 19-32 6-32 6-35-19-36-19 41-18 40-17 24 6 23 5 25-16 26-17 39 12 40 12 29-15c16-9 31-23 35-32l6-17-15-23-15-24h40v-9c0-6-5-13-10-16l-10-6v-37c0-20-5-53-10-72-6-19-11-58-11-86v-51l15-37c30-72 85-131 156-169l35-19 73-1h72v-20l23 21c45 42 57 25 57-75v-65l13 4 12 5 3 52 3 53 15-6c9-3 26-6 38-6h23l11-25 12-26V706l-12-58-12-59 10-17 11-17 23-3 23-4 7 12 7 12-5 157-5 157 12 23 13 23 19-5 19-5-6 10-7 11 34-8c19-3 70-10 114-14s73-8 65-9-26-12-40-25-33-26-42-30l-18-6V391l-10-25-10-26 10-25 10-25h40l12 26 12 25-12 45-12 44v405l20 33 20 33 28-3 27-3 6-50 6-50 2 40 3 40 8-26 7-26-5-53-5-53-12 23-13 24-7-32-6-32 6-19c3-10 13-22 22-25l17-7 20 20 20 21-12 45c-7 25-12 68-12 96v51l17 29c10 16 21 29 25 29s8-23 10-52l3-51 13-5 12-4v137l9 14 9 14 16-6 16-6 1-23c1-13 2-103 3-201l1-178 11-7 11-7 1-43 2-44-13 5-12 4 2 34 2 34-11-38-10-37 6-26 7-25 27 3 27 3-5 95c-3 52-5 156-5 230v135l23 38 24 37h28l16-25 16-25-3-405-4-405 18-6 18-6 18 16 18 16-8 48-8 47v320l-1 321 35 72 34 72h121l2-52 1-53 6 54 6 53 50 19 50 19 36 32c46 43 76 86 95 140l16 43-1 63-1 64-21 48-20 47-38 37-37 36-52 18c-66 24-68 26-37 46l25 16v15c0 8 4 15 9 15h9l-5 19-5 19 36 27 36 27 36-6 36-7 14 12 14 11 23-6 22-5 50 24 50 23-16 1c-9 1-22 8-29 16l-12 15h-60l-25-20-26-20h-29c-16 0-45-7-65-15l-36-15-13 11c-8 6-14 18-14 25 0 8-4 14-10 14h-10l-1 28-1 27-5-18-5-18-15 5c-8 3-17 6-19 6-3 0-3 4 1 9l6 10-21 11-20 11v29h-15c-9 0-27 12-41 27l-25 28-42 1c-53 2-85 15-119 49l-28 28-29-6-30-6-60 59c-33 33-62 60-65 60-10 0-99 42-126 59l-24 16-101 1-100 1-28-33zm249-58c29-7 76-26 104-42l53-29 45-55c39-48 65-94 85-152l6-16 38 19 38 20 56-3 55-4 38-29 37-28 25-48 24-48v-28c0-15-5-44-10-64l-10-36-25-28-26-27-12 5-13 5 3-37 2-36-8 36c-8 38-43 102-55 99-3-1-21 2-38 5l-32 7-10-13c-6-8-17-14-25-14h-14l-17-30-17-30-19 3c-22 5-35 22-27 36l6 9-12-7-12-8-15 13-15 12 3-13 3-14-17-4-18-3v23l-1 23-18 23c-11 12-24 22-29 22s-12 9-15 21l-6 21-10-7-11-6v32l-8-5c-5-3-16 4-25 15l-17 19h-94l-43-21c-24-11-43-25-43-30s-7-9-15-9h-15v-32l-19 5-20 5 6-14 5-14-16-6-16-6v-119l-19-20-18-20-27 11c-15 5-38 10-51 10h-24l-26-27c-14-16-28-38-32-51l-6-23 16-40 15-39-26-12-27-13-3-22-3-21-31 15-31 16-26-16-26-16-3-37-3-38 17-13 18-13h-26c-69 0-144 55-185 135l-26 50-5 66-4 66 17 53 17 53 47 47 46 48 45 12 45 12 51-5 52-5-9 36c-5 21-9 60-9 88v50l17 50c29 84 87 155 175 211l43 27 50 12c28 7 75 13 105 13l55 1 51-14zm959-326c3-5 5-10 3-11-2 0-22-2-45-5l-43-6v9c0 17 13 23 46 23h33l6-10zM345 1640c-3-5-17-10-31-10h-25l6 10c3 6 17 10 31 10h25l-6-10zm242-44c1-1-3-8-8-16l-11-15-5 13c-2 6-12 12-21 12s-24 4-31 9l-15 10 45-6c24-3 45-6 46-7zm750-1074c-1-59-3-10-3 108s2 167 3 108c2-60 2-156 0-216zm464-42-8-255-1 270-1 270 9-15 9-16-8-254zm-681 167v-22l-10 15c-5 8-10 21-10 28v13l10-6c6-3 10-16 10-28zm-3-42v-14l-9 5-8 5 5 10c9 13 12 11 12-6zm216-215c-3-12-8-19-11-16-5 6 5 36 12 36 2 0 2-9-1-20zM656 2173c-12-12-5-22 32-45 33-21 72-32 72-21s-54 73-63 73h-11l20-15 19-14-17-1c-9 0-23 7-31 15s-17 11-21 8zm1176-41-23-37 26 28c14 15 25 32 25 38 0 14-3 11-28-29zm376-13c-10-5-23-20-28-32l-11-22 20 22c10 13 30 27 43 32l23 10h-15c-8 0-23-4-32-10zm67-9 6-10h-14c-8 0-40-22-71-50l-57-50h14c7 0 24 12 38 26 13 14 41 33 62 41l37 15v38h-21l6-10zm-1523-27 10-13 9 6c5 3 9 9 9 14v9l-19-2-20-1 11-13zm56-10c7-3 16-2 19 1 4 3-2 6-13 5l-19-1 13-5zm1142-28-13-15 17 6c9 3 16 10 16 15 0 13-6 11-20-6zm156-33-38-26 11-4 12-4-12-14-11-14h9c12 0 59 50 47 50-5 0 0 7 10 15 35 26 12 23-28-3zm-1335 15c2-1 13-9 24-17l20-15-14 18c-7 9-18 17-24 17s-8-1-6-3zm1187-54c7-3 16-2 19 1 4 3-2 6-13 5l-19-1 13-5zm82-3-15-10h12c6 0 15 5 18 10 8 12 4 12-15 0zm-1284-67-7-18 12 12c7 7 10 15 7 18s-9-2-12-12zm-58 0c6-2 18-2 25 0l12 5h-50l13-5zm1735-90c9-2 23-2 30 0l12 5h-60l18-5zm-1742-50c-16-7-33-17-36-24l-7-11 30 16c17 9 42 16 56 16s27 3 29 8l5 7h-23c-13 0-37-5-54-12zm1519-153c8-5 20-10 25-10h10l-15 10c-8 5-19 10-25 10h-10l15-10zM346 1421l-6-9 20 5c23 6 26 13 6 13-8 0-17-4-20-9zm159-1-6-10h10c5 0 13 5 16 10l6 10h-10c-5 0-13-4-16-10zm-90-90-6-10h15c8 0 18 5 21 10l6 10h-15c-8 0-18-4-21-10zm1891-51c6-10 104-62 104-55 0 3-25 18-55 34-30 17-52 26-49 21zm-585-355 1-19 5 13c3 7 2 16-1 19-3 4-6-2-5-13zm-510-54-1-45 10-15 10-15-1 40c0 22-4 49-9 60l-9 20v-45zm59 36c0-3 8-15 17-26 18-20 33-26 33-12-1 8-50 46-50 38zm-29-53c1-53 6-49 11 10l4 37h-16l1-47z"/>
    </g>
    <g fill="#460605" transform="matrix(.1 0 0 -.1 0 276)">
      <path d="M1215 2230c-11-4-34-21-51-38l-32-30-31-7-31-7-78-76-78-77-26-55c-14-30-34-77-43-105l-18-50-24-23-24-23-35-6-36-6-4-12c-3-7-27-35-55-64l-49-51v-17c0-10-11-37-25-60l-24-43h29v-14c0-8-5-18-11-22l-11-6 5-20 5-19-14-51c-9-27-16-67-16-88v-38l16-49 16-48 45-52 45-51 47-23 48-23 74 1 74 1 9 16c5 9 18 20 28 26l20 11 49-17 50-16 36 12 36 12 43-36 43-35 47-12 47-12 67 5 67 5 40 21c22 11 55 36 73 55l33 34 45-5 45-5 37 17 37 17 60-27c62-27 79-31 155-34 46-3 55 0 125 30 76 33 137 107 164 198l17 57-8 63-7 63-25 42c-42 72-77 97-180 131l-19 6 27 25 26 24-10 26c-6 15-10 38-10 53-1 31-22 78-64 139l-28 42-34 11-34 12v26l-26 6-26 7-13-11-14-11-28 17c-15 10-40 30-55 46l-27 28h-18c-11 0-24-5-30-11l-11-11-43 48c-24 26-52 56-61 66-19 19-82 48-106 48-8 0-31 12-51 27-39 30-67 38-76 23-8-12-51-13-73-1l-17 9-20-8zm262-109 68-32 47-50 47-50 25-52c13-29 26-60 30-69l5-18 35 21 35 20 39 1c51 0 80-9 120-39l32-24 26-52 26-51-5-49-6-48-21-34-21-34-18-6-18-6 1-39 1-40h7c5 0 8 6 8 14s12 24 26 35l27 21h77l40-26c38-26 51-44 30-44-5 0-10 5-10 10 0 13-77 49-103 50h-19l-35-37-36-36-16 10-16 10 3 26 3 26-15 29-16 30-31 16c-40 20-48 20-88 0l-32-16-9-24-10-24h-50v30l-17 1c-10 1-30 0-45-1l-28-2v50l-25 23c-13 13-25 30-25 37v12h-15c-8 0-15 5-15 10 0 6-7 10-15 10s-15 4-15 9-15 14-34 21l-33 11-41-7-41-6-33-27c-17-14-47-41-65-59l-33-34-1-21c-1-12-1-40 0-62l2-40-21-22c-24-27-43-29-60-8s-34 19-80-10l-40-25-1-18c-2-34 3-67 12-77 16-17 10-30-21-42l-30-11v-40l-31 15-32 16-26-16-26-16-3-34-3-35 16-16 16-16h-57l-41 20-41 20-35 41-36 41-15 46-16 46v112l16 49 17 48 46 48 46 47 45 12 45 12 51-5 52-5-9 36c-5 21-9 60-9 88v50l17 50 16 49 38 51c61 82 118 124 209 150l45 13 87-3 86-3 69-32zM295 1604c10-8 25-14 33-14h13l-5 9c-3 5-18 11-33 14l-28 5 20-14zm2017-330c10-10 20-16 22-13 3 3-5 11-17 18l-22 13 17-18zm38-18c0-3 9-10 20-16s20-8 20-6c0 3-9 10-20 16s-20 8-20 6zm-338-296v-35l5 18c2 9 2 25 0 35l-5 17v-35zm-526-266-6-16-25 6c-29 7-31 3-9-18 21-22 29-20 48 8l16 25-9 5-9 6-6-16zm298-259V245l3 98c2 54 2 139 0 190-1 51-3 7-3-98zm-645 153-15-21-22 12-22 12v-9c0-15 24-32 47-32h23l6 25c8 34 3 38-17 13zm532-115-1-13-25-6-25-6 6-9c3-5 14-9 25-9h20l5 15c3 8 4 20 1 27l-5 13-1-12zm-324-145-19-20-15 6-16 6 13-15c18-22 35-19 50 10 17 31 11 37-13 13zm473-158-5-35-27-3c-34-4-36-17-6-26l23-5 13 13 13 13-3 39-4 39-4-35z"/>
    </g>
  </g>
</svg>